<svg width="32" height="32" viewBox="0 0 32 32" fill="none" xmlns="http://www.w3.org/2000/svg">
  <defs>
    <linearGradient id="logoGradient" x1="0%" y1="0%" x2="100%" y2="100%">
      <stop offset="0%" style="stop-color:#ff6b47;stop-opacity:1" />
      <stop offset="50%" style="stop-color:#ff4500;stop-opacity:1" />
      <stop offset="100%" style="stop-color:#e53e3e;stop-opacity:1" />
    </linearGradient>
    <filter id="shadow" x="-50%" y="-50%" width="200%" height="200%">
      <feDropShadow dx="0" dy="2" stdDeviation="2" flood-color="#ff4500" flood-opacity="0.3"/>
    </filter>
  </defs>
  
  <!-- Main geometric shape - stylized 'C' or chain link -->
  <path d="M8 6 L24 6 Q28 6 28 10 L28 14 Q28 18 24 18 L16 18 L16 14 L20 14 Q22 14 22 12 L22 10 Q22 8 20 8 L12 8 Q10 8 10 10 L10 22 Q10 24 12 24 L20 24 Q22 24 22 22 L22 20 Q22 18 20 18 L16 18 L16 14 L24 14 Q28 14 28 18 L28 22 Q28 26 24 26 L8 26 Q4 26 4 22 L4 10 Q4 6 8 6 Z" 
        fill="url(#logoGradient)" 
        filter="url(#shadow)"/>
  
  <!-- Highlight for 3D effect -->
  <path d="M8 6 L20 6 Q24 6 24 10 L24 12 Q24 14 22 14 L14 14 Q12 14 12 12 L12 10 Q12 8 14 8 L18 8 Q20 8 20 10 L20 11 Q20 12 19 12 L17 12" 
        fill="rgba(255,255,255,0.3)" 
        opacity="0.6"/>
</svg>
